<?xml version="1.0" standalone="no"?>
<!DOCTYPE svg PUBLIC "-//W3C//DTD SVG 1.1//EN" "http://www.w3.org/Graphics/SVG/1.1/DTD/svg11.dtd" >
<svg xmlns="http://www.w3.org/2000/svg">
<metadata>Generated by IcoMoon</metadata>
<defs>
<font id="ServiceBook" horiz-adv-x="1024">
<font-face units-per-em="1024" ascent="960" descent="-64" />
<missing-glyph horiz-adv-x="1024" />
<glyph unicode="&#x20;" horiz-adv-x="512" d="" />
<glyph unicode="&#xe900;" glyph-name="account" d="M783.787 260.466c-105.884 24.462-204.601 45.838-156.786 135.879 145.323 274.204 38.528 420.821-115.001 420.821-156.587 0-260.807-152.263-115.029-420.821 49.252-90.581-53.12-111.957-156.843-135.879-105.913-24.462-97.764-80.313-97.764-181.632h739.271c0 101.319 8.135 157.184-97.849 181.632z" />
<glyph unicode="&#xe901;" glyph-name="add" d="M582.869 78.222v298.923h298.908v141.739h-298.908l0.014 298.894h-141.753l0.028-298.894h-298.937v-141.739h298.908v-298.923z" />
<glyph unicode="&#xe902;" glyph-name="addrecord" d="M378.795 675.556c-14.45 0-26.169 17.579-26.169 28.43 0 10.88 11.719 28.459 26.169 28.459h459.989l4.921 28.444h-459.961c-41.813 0-75.719-36.793-75.719-96.228l0.441-31.772h160.868v-170.667h170.667v-199.111h-156.444v-42.667h398.222v455.111h-502.983zM611.556 433.778h-170.667v170.667h-142.222v-170.667h-156.444v-142.222h156.444v-156.444h142.222v156.444h170.667z" />
<glyph unicode="&#xe903;" glyph-name="adduser" d="M601.927 79.502h-459.42c0 101.305-8.149 157.17 97.778 181.618 103.694 23.922 206.052 45.298 156.843 135.922-145.806 268.501-41.572 420.736 115.015 420.736 153.572 0 272.27-151.452 115.015-420.75-38.201-65.422-79.076-121.671-79.076-181.831 0-52.452 20.494-100.196 53.845-135.694zM881.92 215.196c0-74.837-60.672-135.495-135.509-135.495s-135.495 60.672-135.495 135.495c0 74.837 60.672 135.495 135.495 135.495 74.837 0 135.509-60.658 135.509-135.495zM829.696 235.89h-58.652v58.638h-45.312v-58.638h-58.652v-45.312h58.652v-58.638h45.312v58.638h58.652v45.312z" />
<glyph unicode="&#xe904;" glyph-name="android" d="M244.636 578.56c-25.202 0.014-45.639-20.452-45.639-45.639l0.043-191.147c0-25.273 20.452-45.668 45.653-45.653 25.23 0 45.653 20.395 45.625 45.653v191.175c-0.014 25.173-20.466 45.625-45.682 45.611zM612.722 750.208l31.858 58.183c1.707 3.044 0.583 6.912-2.503 8.633-3.1 1.65-6.94 0.526-8.59-2.532l-32.185-58.78c-56.59 25.173-122.752 24.932-178.674 0.085l-32.213 58.638c-1.678 3.1-5.532 4.21-8.576 2.532-3.1-1.664-4.224-5.547-2.517-8.576l31.872-58.14c-62.62-32.299-103.253-93.796-103.225-164.409l408.078 0.043c0.043 70.585-40.789 131.954-103.324 164.324zM418.361 660.309c-9.472 0.014-17.18 7.723-17.18 17.223 0 9.472 7.694 17.252 17.195 17.252 9.529 0.014 17.237-7.78 17.252-17.252 0.014-9.5-7.723-17.223-17.266-17.223zM605.582 660.338c-9.5-0.014-17.237 7.694-17.237 17.237 0.028 9.444 7.723 17.237 17.252 17.266 9.458-0.028 17.209-7.822 17.209-17.28 0-9.515-7.723-17.223-17.223-17.223zM307.996 569.941l0.071-296.22c-0.028-26.951 21.774-48.697 48.711-48.697l33.195-0.014v-101.134c0-25.173 20.466-45.653 45.611-45.653 25.216 0 45.653 20.494 45.668 45.682v101.12l61.625 0.014v-101.134c0-25.159 20.48-45.668 45.625-45.625 25.216-0.014 45.639 20.466 45.639 45.668v101.106l33.28 0.028c26.866-0.014 48.725 21.774 48.725 48.711l-0.057 296.22-408.092-0.071zM824.974 532.992c0 25.202-20.437 45.639-45.639 45.639-25.202 0.014-45.639-20.452-45.625-45.653l0.028-191.147c0-25.23 20.423-45.625 45.639-45.639 25.202 0 45.625 20.409 45.625 45.653l-0.028 191.147z" />
<glyph unicode="&#xe905;" glyph-name="apple" d="M813.127 275.2c-24.22-70.258-89.7-194.66-164.409-196.011-49.564-0.939-65.451 29.355-122.112 29.355-56.619 0-74.311-28.444-121.173-30.293-79.26-3.015-194.574 179.584-194.574 338.816 0 146.29 94.905 218.809 183.964 220.146 47.758 0.853 92.871-32.213 122.027-32.213 29.227 0 84.025 39.751 141.625 33.906 24.092-0.996 91.79-9.714 135.239-73.259-115.285-75.221-104.348-232.59 19.413-290.446zM659.228 817.778c-87.097-3.513-158.151-94.862-148.21-170.439 80.469-6.244 157.71 83.968 148.21 170.439z" />
<glyph unicode="&#xe906;" glyph-name="auction" d="M528.697 505.159l-73.856-73.856 106.012-106.041-27.193-27.236 219.847-219.804 27.193 27.193 1.18-1.18 73.828 73.884-1.124 1.195 27.193 27.093-219.904 219.904-27.164-27.193zM351.915 377.344l230.741 230.642-131.627 131.627-230.741-230.713zM442.496 783.004l183.481-183.524 34.716 34.816-183.424 183.481zM360.463 334.004l-34.775-34.775-183.461 183.461 34.775 34.775 183.461-183.461z" />
<glyph unicode="&#xe907;" glyph-name="bonus" d="M741.703 595.157v-29.895h-93.881v29.895h93.881zM282.368 565.262h118.784c1.28 9.97 2.532 19.897 3.812 29.895h-122.596v-29.895zM282.368 506.268h111.204c1.308 10.155 2.588 20.082 3.854 29.895h-115.058v-29.895zM836.096 770.574v-306.788c0-26.069-21.134-47.204-47.204-47.204h-102.329c-0.967-13.241-3.243-27.904-6.812-44.9-13.924-66.076-50.46-157.838-25.586-259.413-71.282-10.98-112.526-16.128-184.661-34.048-8.42 125.184-69.788 152.32-55.566 260.992 16.697 127.474 25.998 199.111 36.864 285.184 3.413 27.093 22.542 40.277 41.202 40.263 19.442 0 38.386-14.308 38.556-42.084 0.654-101.788 3.328-203.179 9.998-227.826 4.494-16.626 33.493-19.655 33.493 15.772 0 3.968-0.043 53.248-0.043 53.248h199.168c8.69 0 15.73 7.040 15.73 15.73v157.611h-217.714c-6.542 42.012-40.149 69.348-79.189 69.362 0 0-0.014 0-0.014 0-38.144 0-72.804-26.382-81.436-69.362h-175.46v-157.596c0-8.69 7.040-15.73 15.73-15.73h137.216c-1.948-15.004-3.996-30.663-6.158-47.204h-146.788c-26.069 0-47.204 21.134-47.204 47.204v306.788c0 26.069 21.134 47.204 47.204 47.204h553.813c26.069 0 47.189-21.134 47.189-47.204zM788.907 754.844c0 8.69-7.040 15.73-15.73 15.73h-522.34c-8.69 0-15.73-7.040-15.73-15.73v-33.308h553.799v33.308zM309.803 279.168c26.212 6.556 52.238 14.606 59.932 17.024-0.412 14.35 0.384 30.308 2.745 48.455 1.436 10.937 2.816 21.461 4.153 31.659l-100.11-35.584c-19.044-6.912-25.316-19.868-20.224-35.285 6.116-18.546 26.652-32.981 53.504-26.268zM372.508 266.667l-62.464-20.238c-14.194-5.148-18.873-14.805-15.076-26.297 4.565-13.824 19.868-24.576 39.879-19.57 18.688 4.665 43.392 12.217 52.409 15.004-6.244 15.559-11.634 31.872-14.748 51.1z" />
<glyph unicode="&#xe908;" glyph-name="book" d="M522.112 346.069l-27.648-27.676-76.132 76.117 27.705 27.62 48.412-48.398 88.064 88.064 27.719-27.662-88.121-88.064zM232.206 690.489c-18.361 0-33.28 11.236-33.28 25.088 0 13.767 14.933 25.017 33.28 25.017h585.017l6.201 39.154h-584.946c-53.148 0-96.256-45.070-96.256-100.594v-462.265c0-55.566 43.108-100.622 96.256-100.622h643.3v574.222h-649.572zM658.489 326.628c0-0.142 0-0.356 0-0.54 0-40.732-33.124-73.87-73.899-73.87-3.868 0-7.723 0.284-11.477 0.868-13.639-19.612-36.395-31.986-60.871-31.986-24.42 0-47.175 12.373-60.772 31.986-3.84-0.583-7.652-0.868-11.534-0.868-40.732 0-73.913 33.138-73.913 73.87 0 0.071 0 0.128 0 0.185-19.115 13.724-30.919 36.068-30.919 60.132 0 24.761 12.487 47.531 32.37 61.099-0.953 4.807-1.451 9.714-1.451 14.72 0 40.718 33.18 73.899 73.913 73.899 3.897 0 7.708-0.313 11.534-0.896 13.596 19.627 36.366 31.986 60.772 31.986 24.476 0 47.232-12.359 60.871-31.986 3.755 0.583 7.595 0.896 11.477 0.896 40.775 0 73.899-33.18 73.899-73.899 0-5.134-0.469-10.155-1.493-15.033 19.598-13.639 31.9-36.295 31.9-60.786 0-23.78-11.605-46.009-30.407-59.776z" />
<glyph unicode="&#xe909;" glyph-name="calendar" d="M353.621 623.9c32.156 0 58.297 26.126 58.297 58.34v77.198c0 32.199-26.126 58.34-58.297 58.34-32.27 0-58.354-26.14-58.354-58.34v-77.198c0-32.213 26.084-58.34 58.354-58.34zM673.166 623.9c32.156 0 58.297 26.126 58.297 58.34v77.198c0 32.199-26.14 58.34-58.297 58.34-32.256 0-58.34-26.14-58.34-58.34v-77.198c-0.014-32.213 26.069-58.34 58.34-58.34zM460.999 330.88h105.614v-105.628h-105.614v105.628zM620.316 489.33h105.643v-105.628h-105.643v105.628zM300.828 489.33h105.572v-105.628h-105.572v105.628zM460.999 489.33h105.614v-105.628h-105.614v105.628zM300.828 330.88h105.572v-105.628h-105.572v105.628zM754.005 720.839v-38.599c0-44.587-36.252-80.91-80.839-80.91-44.601 0-80.896 36.309-80.896 80.91v38.599h-157.796v-38.599c0-44.587-36.267-80.91-80.853-80.91s-80.91 36.309-80.91 80.91v38.599h-123.378v-642.617h725.333v642.617h-120.661zM786.674 166.286h-549.305v383.758h549.305v-383.758z" />
<glyph unicode="&#xe90a;" glyph-name="call" d="M755.868 128.54l-105.102 207.104c-0.299-0.114-59.108-29.596-61.796-30.876-66.844-33.038-203.065 238.293-137.643 274.062l62.194 31.246-104.334 207.701c-0.071-0.028-61.881-31.147-62.919-31.673-42.98-22.812-159.63-76.857 14.777-424.178 175.858-350.35 284.985-286.635 331.719-264.761 3.627 1.636 62.805 31.246 63.104 31.374z" />
<glyph unicode="&#xe90b;" glyph-name="car" d="M886.585 288.484l-30.692 158.578c-5.177 26.766-31.716 48.668-58.98 48.668h-7.481c4.494 8.476 5.248 19.328 1.252 31.104l-59.989 176.597c-9.173 27.022-40.036 49.138-68.58 49.138h-300.231c-28.544 0-59.406-22.116-68.58-49.138l-59.989-176.597c-3.996-11.79-3.243-22.628 1.252-31.104h-7.481c-27.25 0-53.803-21.902-58.98-48.668l-30.692-158.578c-5.177-26.752 12.885-48.654 40.135-48.654h37.774v-62.706c0-18.631 15.090-33.721 33.707-33.721h35.655c18.617 0 33.707 15.090 33.707 33.721v62.706h387.186v-62.706c0-18.631 15.090-33.721 33.707-33.721h35.655c18.617 0 33.707 15.090 33.707 33.721v62.706h37.774c27.278 0 45.34 21.902 40.164 48.654zM271.772 344.789c-24.519 0-44.402 19.883-44.402 44.402s19.883 44.402 44.402 44.402c24.519 0 44.402-19.883 44.402-44.402s-19.883-44.402-44.402-44.402zM533.86 497.835h-216.661c-23.381 0-36.352 18.105-28.843 40.235l49.124 144.626c7.524 22.13 32.782 40.249 56.164 40.249h236.715c23.381 0 48.654-18.119 56.164-40.249l49.109-144.626c7.524-22.13-5.447-40.235-28.828-40.235h-172.942zM752.228 344.789c-24.519 0-44.402 19.883-44.402 44.402s19.883 44.402 44.402 44.402c24.519 0 44.402-19.883 44.402-44.402s-19.883-44.402-44.402-44.402z" />
<glyph unicode="&#xe90c;" glyph-name="cars" d="M921.387 311.353l-23.808 123.008c-4.011 20.764-24.604 37.746-45.753 37.746h-5.803c3.484 6.585 4.068 14.99 0.981 24.135l-46.521 136.988c-7.125 20.964-31.061 38.116-53.191 38.116h-232.889c-22.144 0-46.080-17.152-53.191-38.116l-46.521-136.988c-3.1-9.145-2.517-17.55 0.967-24.135h-5.803c-21.148 0-41.728-16.996-45.753-37.746l-23.808-123.008c-4.025-20.75 9.998-37.746 31.132-37.746h29.298v-48.64c0-14.45 11.705-26.155 26.14-26.155h27.648c14.45 0 26.14 11.705 26.14 26.155v48.64h300.331v-48.64c0-14.45 11.705-26.155 26.14-26.155h27.648c14.436 0 26.14 11.705 26.14 26.155v48.64h29.298c21.177 0 35.2 16.981 31.175 37.746zM444.501 355.015c-19.015 0-34.432 15.417-34.432 34.446 0 19.015 15.417 34.446 34.432 34.446s34.446-15.417 34.446-34.446c0-19.015-15.431-34.446-34.446-34.446zM647.794 473.728h-168.064c-18.133 0-28.203 14.037-22.372 31.218l38.101 112.171c5.831 17.166 25.429 31.218 43.563 31.218h183.623c18.133 0 37.732-14.052 43.563-31.218l38.101-112.171c5.831-17.166-4.224-31.218-22.357-31.218h-134.158zM817.18 355.015c-19.015 0-34.446 15.417-34.446 34.446 0 19.015 15.417 34.446 34.446 34.446 19.015 0 34.446-15.417 34.446-34.446-0.014-19.015-15.431-34.446-34.446-34.446zM339.143 278.684c-7.723 9.372-10.61 21.604-8.121 34.46l23.808 123.008c3.029 15.616 13.781 29.412 27.634 37.589h-140.402c-18.133 0-28.203 14.037-22.372 31.218l38.101 112.171c5.831 17.166 25.429 31.218 43.563 31.218h156.757c5.831 9.287 14.222 17.266 23.865 22.997h-205.255c-22.144 0-46.080-17.152-53.191-38.116l-46.521-136.988c-3.1-9.145-2.517-17.55 0.967-24.135h-5.803c-21.148 0-41.728-16.996-45.753-37.746l-23.808-123.008c-4.025-20.75 9.998-37.746 31.132-37.746h29.298v-48.64c0-14.45 11.705-26.155 26.14-26.155h27.648c14.45 0 26.14 11.705 26.14 26.155v48.64h101.276c-1.82 1.536-3.556 3.2-5.106 5.077zM206.82 355.015c-19.015 0-34.432 15.417-34.432 34.446 0 19.015 15.417 34.446 34.432 34.446s34.446-15.417 34.446-34.446c0-19.015-15.417-34.446-34.446-34.446zM543.332 264.164v-39.196c0-14.45 11.705-26.155 26.14-26.155h27.648c14.436 0 26.14 11.705 26.14 26.155v39.196h-79.929z" />
<glyph unicode="&#xe90d;" glyph-name="close" d="M261.148 78.222l250.852 250.809 250.809-250.809 118.969 118.94-250.88 250.837 250.88 250.809-118.94 118.969-250.837-250.852-250.852 250.852-118.926-118.94 250.809-250.837-250.809-250.837z" />
<glyph unicode="&#xe90e;" glyph-name="cloud" d="M788.068 519.58c-18.759 98.944-105.628 172.402-208.484 172.402-63.147 0-121.714-27.506-161.749-74.852-66.887 17.82-136.96-21.22-156.53-87.836-69.476-20.395-119.083-84.679-119.083-159.26 0-91.548 74.482-166.016 167.822-166.016h405.703c91.563 0 166.030 74.468 166.030 166.016 0 64.64-36.836 122.155-93.71 149.547zM715.748 276.039h-405.703c-53.66 0-95.801 42.169-95.801 93.98 0 61.383 49.764 108.16 111.943 96.91-20.764 71.296 79.46 111.474 116.38 58.24 9.287 26.226 46.464 94.805 137.017 94.805 68.494 0 139.278-46.962 141.639-153.003 45.668-0.171 88.562-33.195 88.562-96.953 0-51.812-42.197-93.98-94.037-93.98z" />
<glyph unicode="&#xe90f;" glyph-name="concept" d="M508.018 271.673c-18.83 7.708-40.277 13.596-63.033 17.692v-54.073c45.952-9.301 80.356-25.586 81.038-43.221-1.052-27.25-82.702-51.3-162.944-51.3-80.341 0-162.048 24.050-163.072 51.3 0.64 17.564 34.873 33.82 80.626 43.122v54.087c-22.556-4.11-43.79-9.956-62.507-17.607-63.004-25.685-72.405-60.885-72.405-79.602 0-18.702 9.415-53.916 72.405-79.602 81.010-33.067 208.924-33.038 289.863 0 63.004 25.685 72.405 60.885 72.405 79.602 0.028 18.702-9.387 53.916-72.377 79.602zM397.639 185.074h-69.76v623.246h69.76v-623.246zM878.265 761.799c0 0-44.004-38.798-101.845-38.798-91.179 0-93.227 78.549-199.068 78.549-57.23 0-110.592-26.596-133.191-45.98 0-19.115 0-327.893 0-327.893 32.057 22.229 80.811 45.596 133.561 45.596 99.925 0 113.963-74.724 203.065-74.724 57.543 0 97.479 36.878 97.479 36.878v326.372z" />
<glyph unicode="&#xe910;" glyph-name="connect" d="M507.378 298.752l-82.66-82.66c-41.956-41.956-110.222-41.956-152.164 0-41.956 41.941-41.956 110.208 0 152.149l138.197 138.183c14.919 14.948 33.195 24.533 52.409 28.828 51.072 11.435 102.4-15.388 123.065-62.564l72.078 72.092c-59.577 90.325-178.418 117.49-271.104 66.418-16.626-9.173-32.256-20.793-46.364-34.901l-138.183-138.183c-80.597-80.612-80.583-211.285 0-291.897 80.612-80.597 211.3-80.597 291.897 0l145.593 145.593c-50.588-13.511-94.066-8.434-132.764 6.94zM829.426 757.888c-69.803 69.788-182.983 69.788-252.786 0l-81.422-81.436c35.513 2.66 71.481-2.674 105.031-15.972l36.892 36.892c36.338 36.324 95.431 36.324 131.783 0 36.338-36.338 36.338-95.445 0-131.769l-119.68-119.666c-36.409-36.452-95.63-36.153-131.755 0-8.42 8.42-15.701 18.901-20.21 29.212l-62.421-62.421c6.556-9.956 13.369-18.56 22.116-27.307 22.585-22.585 51.342-39.424 84.395-47.36 42.866-10.325 88.789-4.594 128.256 17.138 14.393 7.95 27.932 18.020 40.135 30.222l119.68 119.666c69.788 69.803 69.788 182.969-0.014 252.8z" />
<glyph unicode="&#xe911;" glyph-name="dashboard" d="M759.196 450.901c-4.395 13.113-9.728 25.998-15.957 38.215l-75.577-34.091c6.713-12.089 12.004-24.96 15.929-38.229l75.605 34.105zM371.755 478.72c8.348 10.894 17.835 20.764 28.316 29.468l-58.24 60.672c-10.126-9.031-19.598-18.972-28.302-29.511l58.226-60.629zM424.548 525.369c11.719 6.798 24.092 12.217 36.935 16.142l-31.858 79.147c-12.644-4.409-25.045-9.813-36.907-16.171l31.829-79.118zM339.57 413.98c3.698 13.397 8.846 26.311 15.317 38.528l-76.089 32.853c-6.030-12.416-11.193-25.358-15.36-38.542l76.132-32.839zM630.272 604.999c-11.932 6.315-24.306 11.676-36.978 16.028l-31.573-79.303c12.843-3.854 25.259-9.202 36.978-15.986l31.573 79.26zM710.414 539.349c-8.647 10.539-18.204 20.48-28.288 29.511l-58.283-60.672c10.482-8.704 19.996-18.574 28.345-29.468l58.226 60.629zM531.968 633.643c-6.727 0.526-13.468 0.811-20.011 0.811-6.556 0-13.255-0.284-19.996-0.811v-85.803c6.613 0.768 13.355 1.18 19.996 1.18 6.656 0 13.383-0.427 20.011-1.18v85.803zM512.014 746.439c-203.932 0-369.792-165.817-369.792-369.735 0-67.285 18.076-130.446 49.636-184.846h640.313c31.545 54.4 49.607 117.561 49.607 184.846 0 203.918-165.874 369.735-369.764 369.735zM787.527 263.964h-196.466c-2.404 26.923-18.119 50.020-40.661 62.521l-38.372 179.94-38.428-179.954c-22.514-12.501-38.286-35.584-40.676-62.521h-196.452c-14.308 34.788-22.229 72.832-22.229 112.754 0 164.139 133.561 297.742 297.785 297.742 164.181 0 297.756-133.589 297.756-297.742 0-39.908-7.95-77.952-22.258-112.74z" />
<glyph unicode="&#xe912;" glyph-name="delete" d="M233.714 559.303v-481.081h539.676v481.081h-539.676zM398.251 184.818c0-14.876-12.075-26.923-26.965-26.923-14.862 0-26.923 12.046-26.923 26.923v267.89c0 14.876 12.060 26.951 26.923 26.951 14.891 0 26.965-12.075 26.965-26.951v-267.89zM530.475 184.818c0-14.876-12.032-26.923-26.908-26.923-14.891 0-26.923 12.046-26.923 26.923v267.89c0 14.876 12.032 26.951 26.923 26.951 14.876 0 26.908-12.075 26.908-26.951v-267.89zM662.699 184.818c0-14.876-12.032-26.923-26.951-26.923-14.805 0-26.894 12.046-26.894 26.923v267.89c0 14.876 12.089 26.951 26.894 26.951 14.919 0 26.951-12.075 26.951-26.951v-267.89zM814.549 675.527l-16.896-69.845-588.203 142.251 16.896 69.845 165.646-40.050c26.965-6.542 54.144 10.069 60.7 37.063l159.175-38.5c-6.5-27.022 10.055-54.201 37.035-60.715l165.646-40.050z" />
<glyph unicode="&#xe913;" glyph-name="down" d="M783.232 681.5l98.546-99.029-369.778-367.972-369.778 367.972 98.546 99.029 271.232-269.966z" />
<glyph unicode="&#xe914;" glyph-name="drive" d="M165.774 317.312c-70.343 192.199 22.414 405.106 218.539 477.241 190.663 70.13 399.019-23.595 472.078-214.087 74.596-194.532-22.172-406.428-216.021-478.606-191.189-71.182-399.445 23.495-474.596 215.452zM722.29 625.977c-26.226 31.090-56.32 53.931-90.98 70.656-52.651 25.401-107.719 33.593-165.746 24.135-48.825-7.964-91.79-28.402-129.906-58.866-21.177-16.924-38.969-37.589-53.831-60.587-29.34-45.397-45.013-94.933-45.682-149.049-0.114-9.771 0.284-9.87 9.856-6.258 155.477 58.496 310.94 117.035 466.389 175.573 2.887 1.081 5.646 2.489 9.899 4.395zM267.605 355.812c-15.189-5.319-15.957-6.244-9.543-18.19 9.045-16.882 18.66-33.465 28.53-49.892 13.084-21.76 31.303-39.168 50.859-54.727 41.884-33.323 89.657-53.333 143.061-59.42 23.68-2.702 47.289-2.091 70.869 0.782 11.819 1.436 13.582 4.565 8.036 15.36-6.756 13.17-14.052 26.069-21.49 38.869-16.569 28.487-37.66 53.404-62.891 74.396-41.444 34.475-88.42 56.448-143.104 59.534-22.841 1.294-45.141-2.005-64.327-6.713zM771.044 545.436c-4.295-1.621-6.741-2.446-9.116-3.442-25.216-10.724-46.933-26.667-65.493-46.464-27.449-29.284-45.511-64.043-55.31-102.898-6.898-27.392-9.643-55.125-8.917-83.612 0.782-30.919 7.794-60.331 14.962-89.956 1.92-7.936 6.258-8.405 12.046-4.594 9.159 6.030 18.816 11.591 26.98 18.788 21.035 18.56 40.548 38.613 55.908 62.35 22.158 34.233 36.793 71.111 43.065 111.659 5.020 32.469 3.94 64.512-2.162 96.441-2.645 13.852-7.737 27.236-11.961 41.728zM468.722 432.156c6.798-23.495 36.651-35.499 58.325-27.748 24.263 8.676 35.797 37.419 28.132 59.15-8.277 23.481-37.461 35.726-59.292 27.819-23.196-8.405-37.035-38.059-27.164-59.221z" />
<glyph unicode="&#xe915;" glyph-name="edit" d="M367.758 133.234l-211.172-38.983 42.581 207.573 168.59-168.59zM248.007 350.62l168.562-168.576 451.129 451.115-168.59 168.59-451.1-451.129z" />
<glyph unicode="&#xe916;" glyph-name="engine" d="M142.222 483.996h77.54v-229.632h-77.54v229.632zM530.219 605.056h76.786v35.499h78.976v78.962h-232.576v-78.962h76.814zM804.978 563.726h76.8v-270.407h-76.8v270.407zM414.464 563.726l-79.516-117.191h-86.3v-153.216h84.679l81.138-116.836h271.516l77.881 122.24v265.003h-77.881z" />
<glyph unicode="&#xe917;" glyph-name="facebook" d="M418.773 576h-77.44v-126.407h77.44v-371.371h148.935v372.935h103.908l11.051 124.843h-114.958c0 0 0 46.62 0 71.111 0 29.426 5.931 41.088 34.361 41.088 22.912 0 80.597 0 80.597 0v129.579c0 0-84.949 0-103.111 0-110.805 0-160.782-48.782-160.782-142.222 0-81.38 0-99.556 0-99.556z" />
<glyph unicode="&#xe918;" glyph-name="feedback" d="M142.222 748.188v-527.147h386.873l236.9-158.564v158.564h115.783v527.147h-739.556zM512 409.7h240.782v-53.86h-240.782v53.86zM268.146 517.404h484.636v-53.86h-484.636v53.86zM268.146 625.095h484.636v-53.845h-484.636v53.845z" />
<glyph unicode="&#xe919;" glyph-name="file" d="M845.796 508.26l-314.226-360.946c-72.96-83.783-200.476-92.601-284.288-19.669-83.783 72.96-92.601 200.491-19.655 284.26l308.665 354.517c54.215 62.265 148.978 68.836 211.257 14.62s68.85-148.978 14.606-211.257l-234.425-269.269c-35.328-40.548-97.038-44.828-137.586-9.515-40.548 35.285-44.8 96.996-9.515 137.543l181.618 208.612 52.992-46.094-181.618-208.64c-9.884-11.349-8.676-28.587 2.66-38.457s28.587-8.69 38.471 2.66l234.425 269.284c28.786 33.052 25.316 83.371-7.751 112.156-33.081 28.786-83.385 25.301-112.142-7.751l-308.665-354.546c-47.531-54.571-41.771-137.628 12.814-185.159 54.585-47.502 137.628-41.771 185.159 12.828l314.226 360.917 52.978-46.094z" />
<glyph unicode="&#xe91a;" glyph-name="filter" d="M431.019 340.267l-262.67 449.067h687.317l-263.893-449.067h-160.754zM448.91 279.196v-229.419h124.928v229.419h-124.928z" />
<glyph unicode="&#xe91b;" glyph-name="flat" d="M568.348 404.949c0-31.497-25.534-57.031-57.031-57.031s-57.031 25.534-57.031 57.031c0 31.497 25.534 57.031 57.031 57.031s57.031-25.534 57.031-57.031zM592.057 342.357c0-10.023-8.125-18.148-18.148-18.148s-18.148 8.125-18.148 18.148c0 10.023 8.125 18.148 18.148 18.148s18.148-8.125 18.148-18.148zM466.859 467.556c0-10.023-8.125-18.148-18.148-18.148s-18.148 8.125-18.148 18.148c0 10.023 8.125 18.148 18.148 18.148s18.148-8.125 18.148-18.148zM592.057 467.556c0-10.023-8.125-18.148-18.148-18.148s-18.148 8.125-18.148 18.148c0 10.023 8.125 18.148 18.148 18.148s18.148-8.125 18.148-18.148zM466.859 342.357c0-10.023-8.125-18.148-18.148-18.148s-18.148 8.125-18.148 18.148c0 10.023 8.125 18.148 18.148 18.148s18.148-8.125 18.148-18.148zM617.984 404.949c0-10.023-8.125-18.148-18.148-18.148s-18.148 8.125-18.148 18.148c0 10.023 8.125 18.148 18.148 18.148s18.148-8.125 18.148-18.148zM440.932 404.949c0-10.023-8.125-18.148-18.148-18.148s-18.148 8.125-18.148 18.148c0 10.023 8.125 18.148 18.148 18.148s18.148-8.125 18.148-18.148zM529.465 493.483c0-10.023-8.125-18.148-18.148-18.148s-18.148 8.125-18.148 18.148c0 10.023 8.125 18.148 18.148 18.148s18.148-8.125 18.148-18.148zM529.465 316.43c0-10.023-8.125-18.148-18.148-18.148s-18.148 8.125-18.148 18.148c0 10.023 8.125 18.148 18.148 18.148s18.148-8.125 18.148-18.148zM803.897 190.308h4.366c46.151 60.885 73.515 136.42 73.515 218.155 0 201.216-165.888 364.928-369.778 364.928s-369.778-163.712-369.778-364.928c0-81.721 27.364-157.255 73.515-218.155h1.877c-8.889-6.94-14.649-17.735-14.649-29.81 0-20.836 17.038-37.874 37.874-37.874h539.819c20.836 0 37.874 17.038 37.874 37.874 0 12.075-5.76 22.855-14.635 29.81zM512 218.923c-105.899 0-192.057 85.020-192.057 189.54s86.158 189.525 192.057 189.525 192.057-85.020 192.057-189.54-86.158-189.525-192.057-189.525z" />
<glyph unicode="&#xe91c;" glyph-name="googleplus" d="M767.317 557.284h72.249v-218.567h-72.249v218.567zM694.172 484.124h218.567v-72.249h-218.567v72.249zM366.123 484.409l243.086-0.242c0 0 12.601-109.525-37.973-185.116s-129.436-106.738-210.148-105.287c-80.711 1.451-159.701 44.103-201.685 106.34s-50.276 115.925-47.9 159.659c2.375 43.748 18.532 110.99 69.319 162.219s115.044 79.858 185.287 80.128c58.311 0.228 99.214-11.634 169.87-62.777l-64.469-66.788c0 0-48.697 36.708-112.213 35.157s-101.333-41.301-108.928-50.261c-7.595-8.96-37.333-42.709-40.718-99.484s21.973-103.339 43.819-122.197 49.365-47.872 108.075-48.185 89.87 18.83 118.4 46.791 30.82 57.671 31.758 62.066l-145.465 1.252-0.114 86.727z" />
<glyph unicode="&#xe91d;" glyph-name="info" d="M512 817.778c-204.274 0-369.778-165.561-369.778-369.792 0-204.203 165.504-369.764 369.778-369.764 204.26 0 369.778 165.561 369.778 369.764 0 204.231-165.518 369.792-369.778 369.792zM504.804 230.884c-53.333-18.716-97.252 2.773-88.448 53.973 8.846 51.2 59.477 160.796 66.702 181.532 7.154 20.722-6.656 26.382-21.461 17.977-8.562-4.935-21.276-14.805-32.185-24.434-3.058 6.101-7.353 13.042-10.496 19.726 17.806 17.835 47.559 41.742 82.802 50.404 42.069 10.368 112.398-6.229 82.176-86.67-21.618-57.316-36.836-96.853-46.478-126.35-9.614-29.468 1.806-35.612 18.617-24.164 13.198 9.003 27.164 21.191 37.476 30.663 4.722-7.723 6.272-10.197 10.923-19.044-17.82-18.276-64.455-60.971-99.627-73.614zM615.225 585.529c-24.107-20.565-59.975-20.153-80.028 1.010-20.039 21.134-16.697 54.955 7.438 75.548 24.164 20.565 60.004 20.096 80.085-1.038 20.011-21.106 16.697-54.912-7.495-75.52z" />
<glyph unicode="&#xe91e;" glyph-name="insurance" d="M542.777 754.375v32.555c0 16.996-13.781 30.848-30.777 30.848s-30.791-13.852-30.791-30.848v-32.384c-213.077-16.114-319.573-172.359-338.987-305.266 57.486 82.475 189.084 82.475 246.528 0 56.718 81.38 186.325 82.702 243.968 0 57.429 82.475 191.559 82.475 249.060 0-19.314 132.238-127.118 287.616-339.001 305.095zM542.777 443.15v-272.455c0-51.044-41.372-92.473-92.416-92.473-51.029 0-92.416 41.429-92.416 92.473v30.791h61.625v-30.791c0-16.996 13.796-30.848 30.791-30.848s30.848 13.852 30.848 30.848v273.166c20.921 6.997 39.125 7.438 61.568-0.711z" />
<glyph unicode="&#xe91f;" glyph-name="key" d="M486.684 417.963v-102.784l-37.632-9.102 12.9-53.276-55.552-13.44 12.16-50.204-123.378-29.867-20.708 85.561 150.3 244.082c14.421-28.53 35.797-52.935 61.909-70.969zM521.628 397.98v-257.508l62.251-62.251 89.756 89.756-36.523 36.523 40.42 40.405-38.77 38.756 38.77 38.77v80.057c-50.020-23.865-106.78-24.59-155.904-4.508zM749.525 574.393c0-85.646-69.433-155.079-155.079-155.079s-155.079 69.433-155.079 155.079c0 78.436 58.254 143.246 133.86 153.6-15.815 30.492-47.673 51.399-84.352 51.399-52.366 0-94.976-42.61-94.976-94.976 0-21.134 6.94-40.676 18.66-56.462-4.437-15.033-7.068-30.82-7.609-47.147-30.151 24.448-49.422 61.767-49.422 103.609 0 73.643 59.705 133.348 133.348 133.348 58.34 0 107.904-37.49 125.995-89.671 75.989-9.984 134.656-74.965 134.656-153.7zM632.832 647.068c0 10.468-4.196 19.94-10.98 26.88-1.038-14.564-4.153-27.62-8.434-35.911-12.672-2.66-28.828 5.106-34.674 16.654 3.157 8.206 5.063 16.896 5.106 29.34-16.114-4.58-27.932-19.385-27.932-36.964 0-21.248 17.223-38.471 38.471-38.471 21.22 0.014 38.443 17.237 38.443 38.471z" />
<glyph unicode="&#xe920;" glyph-name="licensed" d="M889.97 431.388c0 52.423-26.311 100.85-68.167 129.934 2.105 10.439 3.2 21.191 3.2 32.114 0 87.040-70.812 157.909-157.924 157.909-8.22 0-16.498-0.654-24.562-1.92-29.070 41.941-77.71 68.352-129.977 68.352-52.21 0-100.836-26.411-129.934-68.366-8.121 1.266-16.284 1.92-24.59 1.92-87.097 0-157.938-70.869-157.938-157.909 0-10.681 1.024-21.177 3.115-31.431-42.496-28.985-69.163-77.653-69.163-130.617 0-51.328 25.202-99.086 66.048-128.455 0-0.1 0-0.242 0-0.356 0-87.054 70.855-157.895 157.938-157.895 8.306 0 16.469 0.654 24.59 1.906 29.099-41.941 77.71-68.352 129.934-68.352 52.267 0 100.907 26.411 129.991 68.352 8.050-1.252 16.327-1.906 24.562-1.906 87.111 0 157.924 70.841 157.924 157.895 0 0.384 0 0.825 0 1.166 40.178 29.412 64.953 76.928 64.953 127.659zM782.521 325.134c1.451-7.31 2.162-14.82 2.162-22.571 0-64.939-52.665-117.604-117.618-117.604-15.858 0-30.976 3.2-44.772 8.903-17.024-44.060-59.719-75.321-109.767-75.321-50.005 0-92.7 31.26-109.696 75.321-13.824-5.703-28.971-8.903-44.828-8.903-64.967 0-117.604 52.665-117.604 117.604 0 7.566 0.711 14.948 2.091 22.101-40.263 18.66-68.167 59.42-68.167 106.724 0 51.001 32.469 94.379 77.867 110.677-7.552 15.502-11.79 32.91-11.79 51.371 0 64.924 52.636 117.589 117.604 117.589 15.858 0 31.004-3.186 44.828-8.889 16.996 44.032 59.691 75.307 109.696 75.307 50.048 0 92.743-31.275 109.767-75.307 13.81 5.703 28.914 8.889 44.772 8.889 64.939 0 117.618-52.665 117.618-117.589 0-18.56-4.281-36.096-11.918-51.712 44.857-16.526 76.885-59.719 76.885-110.322 0.014-46.905-27.435-87.396-67.129-106.268zM474.51 404.409l-103.452 103.438-59.136-59.108 162.588-162.603 247.353 247.339-59.136 59.136z" />
<glyph unicode="&#xe921;" glyph-name="linkedin" d="M322.887 726.798c0-50.247-40.405-90.98-90.24-90.98s-90.24 40.732-90.24 90.98c0 50.247 40.405 90.98 90.24 90.98 49.849 0 90.24-40.732 90.24-90.98zM309.689 571.264h-152.604v-493.042h152.604v493.042zM553.628 571.264h-146.361v-493.042h146.375c0 0 0 182.869 0 258.816 0 69.333 31.915 110.606 92.999 110.606 56.135 0 83.086-39.623 83.086-110.606s0-258.816 0-258.816h151.865c0 0 0 180.124 0 312.178 0 132.068-74.837 195.897-179.385 195.897s-148.58-81.436-148.58-81.436v66.404z" />
<glyph unicode="&#xe922;" glyph-name="logo" d="M497.792 333.34c-11.321 0-15.716-11.634-15.716-23.111 0-13.028 5.49-22.926 15.559-22.926h0.156c9.429 0 15.218 9.259 15.218 23.083 0.014 11.307-4.38 22.955-15.218 22.955zM313.927 318.706h-8.164v-29.838c2.361-0.484 5.177-0.484 9.259-0.484 10.837 0 20.409 4.238 20.409 15.388 0 10.695-9.572 14.933-21.504 14.933zM332.928 348.857c0 7.993-6.13 12.231-16.967 12.231-5.348 0-8.32-0.313-10.197-0.811v-24.476h7.851c12.7 0.014 19.314 5.22 19.314 13.056zM397.284 494.436c-10.197 0-14.293-9.259-14.919-15.545h28.274c0 5.632-2.503 15.545-13.355 15.545zM409.842 333.34c-11.307 0-15.687-11.634-15.687-23.111 0-13.028 5.476-22.926 15.531-22.926h0.156c9.429 0 15.232 9.259 15.232 23.083 0.014 11.307-4.38 22.955-15.232 22.955zM232.22 690.532c-18.389 0-33.237 11.193-33.237 25.031 0 13.824 14.862 25.031 33.237 25.031h584.974l6.244 39.154h-584.917c-53.163 0-96.299-45.056-96.299-100.622v-462.194c0-55.595 43.136-100.651 96.299-100.651h643.257v574.236h-649.557zM595.598 543.9c8.164 0 13.212-5.504 13.369-12.729 0-7.068-5.191-12.715-13.497-12.715h-0.185c-7.993 0-13.184 5.646-13.184 12.715 0 7.225 5.333 12.729 13.497 12.729zM607.388 508.416v-76.8h-23.893v76.8h23.893zM463.872 508.416l0.939-14.308h0.64c3.371 9.785 10.724 14.578 17.536 15.73l8.050-22.628c-1.963 0.299-3.84 0.612-6.443 0.612-8.789 0-14.763-4.551-16.313-12.103-0.313-1.55-0.469-3.3-0.469-5.333v-38.798h-23.879l0.142 51.513c0 11.307-0.142 18.674-0.612 25.287h20.409zM398.521 510.293c24.818 0 34.247-19.314 34.247-38.315 0-4.068-0.469-7.68-0.768-9.572l-49.479 0.142c0.811-10.041 10.51-14.763 21.675-14.763 8.007 0 14.535 1.081 20.864 3.214v-17.294c-7.154-2.404-15.417-3.655-24.32-3.655-26.069 0-40.988 15.076-40.988 39.268 0 19.456 12.26 40.974 38.77 40.974zM319.26 539.193c12.089 0 20.736-2.375 27.008-5.348l-5.333-19.172c-4.082 2.062-11.776 5.035-21.973 5.035-10.368 0-15.403-4.878-15.403-10.197 0-6.756 5.817-9.756 19.641-15.090 18.674-6.898 27.307-16.654 27.307-31.716 0-17.749-13.497-32.853-42.567-32.853-9.429 0-18.716 2.034-25.202 4.494v21.404l0.1 0.341c6.258-3.285 16.313-6.585 26.524-6.585 10.994 0 16.796 4.551 16.796 11.605 0 6.443-5.006 10.368-17.735 14.748-17.593 6.286-29.212 16.028-29.212 31.588 0 18.062 15.246 31.744 40.050 31.744zM349.568 280.391c-7.694-6.13-20.565-9.586-41.614-9.586-11.335 0-19.812 0.74-25.202 1.493v103.993c6.457 1.18 18.546 2.233 30.236 2.233 14.606 0 23.566-1.422 31.26-5.973 7.381-3.925 12.572-11.15 12.572-20.907 0-9.244-5.504-17.877-17.28-22.443v-0.299c12.103-3.129 21.035-12.416 21.035-26.084-0.014-9.714-4.395-17.237-11.008-22.428zM409.543 270.194h-0.156c-22.457 0-39.737 14.748-39.737 39.538 0 24.832 16.327 40.704 41.145 40.704 23.41 0 39.111-16.199 39.111-39.438 0-27.947-19.954-40.804-40.363-40.804zM497.479 270.194h-0.156c-22.443 0-39.723 14.748-39.723 39.538 0 24.832 16.327 40.704 41.145 40.704 23.367 0 39.097-16.199 39.097-39.438-0.014-27.947-19.968-40.804-40.363-40.804zM523.221 431.616l-27.961 76.8h25.913l10.368-35.655c1.892-6.443 3.143-12.572 4.395-18.674h0.469c1.28 6.272 2.517 12.075 4.252 18.674l9.899 35.655h25.102l-28.572-76.8h-23.865zM597.973 271.9l-18.66 31.559-5.973-7.68v-23.879h-23.879v111.502h23.879v-67.214h0.313c1.721 3.3 3.598 6.443 5.49 9.273l15.559 23.225h28.729l-27.477-31.104 31.417-45.696h-29.397zM618.98 469.305c0 22.457 15.388 40.832 43.975 40.832 6.244 0 13.070-1.081 18.062-2.93-4.836-4.295-8.818-9.685-11.691-15.758-1.579 0.171-3.285 0.313-5.248 0.313-12.544 0-20.722-8.974-20.565-21.518 0-14.137 9.429-21.675 21.049-21.675 1.422 0 2.56 0.242 3.854 0.327 2.574-6.144 6.272-11.563 10.88-16.071-4.494-1.678-11.548-2.972-19.584-2.972-24.832 0.014-40.732 15.26-40.732 39.452zM740.622 271.986h-50.233v23.31h50.233v-23.31zM740.622 315.975h-76.658v23.339h76.658v-23.339zM740.622 360.007h-76.658v23.296h76.658v-23.296zM748.942 462.407l-49.479 0.142c0.796-10.041 10.51-14.763 21.675-14.763 8.021 0 14.549 1.081 20.878 3.214v-17.294c-7.168-2.404-15.388-3.655-24.348-3.655-26.027 0-40.96 15.076-40.96 39.268 0 19.47 12.231 40.988 38.77 40.988 24.818 0 34.247-19.314 34.247-38.315 0.014-4.096-0.455-7.694-0.782-9.586zM714.226 494.436c-10.197 0-14.279-9.259-14.905-15.545h28.274c0 5.632-2.532 15.545-13.369 15.545z" />
<glyph unicode="&#xe923;" glyph-name="love" d="M861.497 684.53c-72.633 148.651-293.319 137.173-349.483 7.652-56.164 129.522-276.85 140.999-349.511-7.652-85.646-175.204 113.109-342.116 349.511-581.205 236.373 239.090 435.129 406.016 349.483 581.205z" />
<glyph unicode="&#xe924;" glyph-name="mail" d="M512.043 416.697l-368.284 305.209h737.607l-369.323-305.209zM511.957 317.156l-369.735 306.318v-449.38h739.556v448.64l-369.82-305.579z" />
<glyph unicode="&#xe925;" glyph-name="menu" d="M327.865 448c0-51.285-41.557-92.843-92.8-92.843-51.285 0.014-92.843 41.572-92.843 92.843s41.557 92.814 92.828 92.814c51.257 0.014 92.814-41.543 92.814-92.814zM512 540.828c-51.257 0-92.828-41.543-92.828-92.814 0-51.285 41.586-92.843 92.828-92.843s92.828 41.557 92.828 92.843c0 51.257-41.572 92.814-92.828 92.814zM788.964 540.828c-51.257 0-92.828-41.543-92.828-92.814 0-51.285 41.572-92.843 92.828-92.843 51.271 0 92.814 41.557 92.814 92.828s-41.543 92.828-92.814 92.828z" />
<glyph unicode="&#xe926;" glyph-name="message" d="M789.191 213.447c57.572 65.195 92.587 150.798 92.587 244.636 0 204.203-165.532 369.764-369.778 369.764-204.217 0-369.778-165.561-369.778-369.764 0-204.245 165.561-369.806 369.778-369.806 50.958 0 99.499 10.34 143.687 28.971l208.028-77.554-74.524 173.753z" />
<glyph unicode="&#xe927;" glyph-name="mile" d="M142.222 717.852v-539.691h739.556v539.691h-739.556zM752.996 590.379c0-2.29-0.498-4.636-1.508-7.040-0.996-2.404-2.674-4.494-5.020-6.272-2.332-1.764-5.433-2.66-9.259-2.66-4.068 0-7.623 1.308-10.695 3.897-3.058 2.603-4.58 6.628-4.58 12.060 0 2.347 0.526 4.793 1.579 7.324 0.398 0.924 0.939 1.735 1.508 2.56h24.818c1.948-2.816 3.157-6.016 3.157-9.87zM368.839 295.708h-161.934v304.555h161.934v-304.555zM592.853 295.708h-45.696c0.597 3.001 0.996 6.087 0.996 9.358 0 7.438-1.692 13.938-5.092 19.527-3.399 5.575-8.078 9.842-14.023 12.786-5.945 2.958-12.558 4.437-19.826 4.437-4.508 0-8.718-0.469-12.601-1.38-3.897-0.91-7.253-2.005-10.084-3.271-2.83-1.252-5.333-2.546-7.509-3.854s-4.949-3.058-8.32-5.234v-28.060c9.614 10.055 19.271 15.090 28.999 15.090 4.907 0 8.96-1.692 12.132-5.092 3.186-3.399 4.764-7.851 4.764-13.34 0-0.313-0.071-0.626-0.085-0.967h-85.575v304.555h161.934v-304.555zM816.868 295.708h-161.906v304.555h37.276c-0.711-3.058-1.195-6.187-1.195-9.387 0-7.495 1.749-14.194 5.234-20.124 3.499-5.931 8.149-10.482 13.995-13.682 5.831-3.2 12.231-4.807 19.228-4.807 3.143 0 5.774 0.284 7.879 0.853-6.528-9.842-16.583-20.565-30.194-32.171l29.326-9.6c9.5 6.684 17.849 14.151 25.017 22.386 7.168 8.249 12.715 16.853 16.597 25.828s5.831 17.963 5.831 26.937c0 4.779-0.782 9.344-1.977 13.767h34.887v-304.555zM770.062 414.421c-4.352 5.063-9.273 8.804-14.791 11.207-5.532 2.404-11.435 3.598-17.721 3.598-6.229 0-12.132-1.209-17.707-3.655-5.575-2.418-10.496-6.158-14.763-11.193-4.252-5.035-7.637-11.406-10.126-19.143-2.475-7.723-3.726-16.782-3.726-27.193 0-10.354 1.252-19.385 3.726-27.108 2.489-7.723 5.874-14.080 10.169-19.058 4.281-4.964 9.216-8.661 14.763-11.108 5.547-2.418 11.435-3.641 17.664-3.641 6.286 0 12.217 1.209 17.764 3.641 5.547 2.446 10.496 6.13 14.805 11.079s7.708 11.307 10.155 19.086c2.46 7.765 3.684 16.811 3.684 27.108s-1.223 19.342-3.684 27.108c-2.46 7.794-5.86 14.222-10.212 19.271zM747.961 341.76c-1.394-6.258-4.864-9.401-10.425-9.401-5.476 0-8.932 3.143-10.325 9.401-1.408 6.258-2.105 15.019-2.105 26.297 0 6.642 0.213 12.416 0.654 17.323 0.427 4.921 1.579 9.259 3.442 13.042 1.863 3.769 4.636 5.66 8.348 5.66 5.49 0 8.96-3.385 10.396-10.126 1.422-6.756 2.148-15.388 2.148-25.913-0.014-11.264-0.711-20.025-2.133-26.283zM495.488 544.54h32.526v-118.898h-32.526v118.898zM248.789 411.819c4.295-4.978 9.216-8.661 14.763-11.108 5.547-2.418 11.435-3.655 17.678-3.655 6.286 0 12.217 1.223 17.749 3.655 5.547 2.446 10.482 6.13 14.805 11.065 4.324 4.949 7.708 11.307 10.169 19.072 2.46 7.78 3.698 16.811 3.698 27.122 0 10.297-1.223 19.328-3.698 27.108-2.46 7.78-5.86 14.222-10.212 19.271-4.352 5.063-9.273 8.775-14.805 11.193-5.518 2.404-11.42 3.598-17.707 3.598-6.244 0-12.146-1.209-17.721-3.641s-10.496-6.172-14.763-11.207c-4.252-5.035-7.637-11.406-10.126-19.143-2.475-7.723-3.726-16.782-3.726-27.193 0-10.354 1.237-19.385 3.726-27.122 2.489-7.694 5.888-14.037 10.169-19.015zM269.412 475.292c0.427 4.907 1.579 9.259 3.442 13.042s4.651 5.66 8.363 5.66c5.49 0 8.946-3.371 10.382-10.126 1.436-6.741 2.148-15.374 2.148-25.899 0-11.278-0.711-20.025-2.105-26.283s-4.878-9.415-10.411-9.415c-5.49 0-8.932 3.157-10.34 9.415-1.408 6.272-2.105 15.019-2.105 26.283 0 6.628 0.213 12.402 0.626 17.323z" />
<glyph unicode="&#xe928;" glyph-name="next" d="M278.471 176.725l99.044-98.503 368.014 369.778-368.014 369.778-99.044-98.532 269.995-271.246z" />
<glyph unicode="&#xe929;" glyph-name="notice" d="M511.957 817.778c-204.146 0-369.735-165.589-369.735-369.778 0-204.245 165.589-369.778 369.735-369.778 204.245 0 369.82 165.532 369.82 369.778 0 204.188-165.575 369.778-369.82 369.778zM512.825 192.156c-29.099 0-52.665 23.58-52.665 52.722 0 29.056 23.566 52.636 52.665 52.636 29.113 0 52.679-23.58 52.679-52.636 0-29.141-23.58-52.722-52.679-52.722zM582.4 623.474c-4.409-35.499-37.134-208.37-47.929-265.159-2.034-10.51-11.221-18.133-21.902-18.133h-0.412c-11.065 0-20.551 7.879-22.628 18.759-10.923 57.671-43.548 230.67-47.972 265.572-5.22 42.098 27.577 79.303 69.945 79.303 42.994-0.014 76.302-37.689 70.898-80.341z" />
<glyph unicode="&#xe92a;" glyph-name="offer" d="M512 565.333c-93.81 0-169.842-76.103-169.842-169.87 0-93.838 76.046-169.799 169.842-169.799s169.856 75.975 169.856 169.799c0 93.781-76.046 169.87-169.856 169.87zM563.072 331.406c-10.169-6.969-22.428-10.411-36.821-10.411-23.239 0-40.42 5.291-51.541 15.9-11.108 10.61-17.92 22.471-20.395 35.541h-17.707l4.722 17.749h10.738c-0.142 0.981-0.213 2.702-0.213 5.177 0 2.617 0.071 4.494 0.213 5.66h-13.028l4.636 17.735h10.638c8.462 33.479 31.701 50.204 69.703 50.204 12.43 0 25.003-3.328 37.788-9.956l-8.804-35.428c-8.846 8.121-18.076 12.174-27.733 12.174-12.629 0-21.12-5.646-25.586-16.996h35.214l-4.224-17.735h-34.389c-0.142-1.294-0.199-3.186-0.199-5.66v-5.177h36.366l-4.238-17.749h-29.582c3.84-12.174 12.174-18.261 25.017-18.261 14.023 0 27.207 4.565 39.424 13.639v-36.409zM492.345 745.984c128.057 0 77.212-166.357 77.212-166.357s171.648 42.482 171.648-84.068c0-56.988 0-345.543 0-345.543h-458.411v595.968c212.452 0 152.007 0 209.55 0zM608.313 780.117c-23.936 24.107-56.505 37.66-90.468 37.66h-306.844v-739.556h601.998v443.292c0 33.692-13.298 66.005-37.077 89.899l-167.609 168.704z" />
<glyph unicode="&#xe92b;" glyph-name="old" d="M209.607 372.252c-1.963-8.263 8.988-13.44 12.629-4.665 4.409 10.709 11.534 56.064 17.707 101.746 3.328 24.434 36.011 21.419 35.925-3.812-0.114-39.31-0.1-72.007 0-130.233 0.071-49.636-22.784-50.631-39.467-106.325-2.83-9.486-5.276-19.94-7.296-30.151l-82.816 28.885c28.871 56.519 14.99 101.077 12.089 137.614-3.94 49.92 9.301 54.727 70.884 114.702-3.726-26.325-11.392-73.202-19.655-107.762zM822.528 372.252c1.991-8.263-8.974-13.44-12.587-4.665-4.452 10.709-11.534 56.064-17.749 101.746-3.314 24.434-36.011 21.419-35.925-3.812 0.114-39.31 0.1-72.007 0-130.233-0.057-49.636 22.812-50.631 39.438-106.325 2.873-9.486 5.319-19.94 7.339-30.151l82.802 28.885c-28.885 56.519-14.948 101.077-12.089 137.614 3.968 49.92-9.301 54.727-70.855 114.702 3.669-26.325 11.378-73.202 19.627-107.762zM729.358 342.457c-73.842-6.158-136.562-19.385-187.349-39.538v260.807c54.343 33.835 132.267 46.791 196.053 52.153v-121.842c12.302 17.436 34.887 23.495 53.717 15.659v162.987c-105.657-3.228-208.91-20.21-276.651-62.407-67.74 42.197-170.937 59.164-276.608 62.407v-163.783c18.048 8.533 40.476 3.854 53.689-12.331v119.324c63.801-5.348 141.724-18.304 196.068-52.153v-260.807c-50.389 19.982-112.427 33.166-185.472 39.381 0-12.473 0.555-31.9-7.979-53.22 70.485-5.817 137.116-18.901 189.554-42.866 19.513-8.946 41.97-8.946 61.497-0.043 52.85 24.263 120.235 37.319 191.417 43.065-8.405 21.006-7.95 39.993-7.936 53.205zM687.644 457.785c-38.514-7.196-74.325-16.526-109.824-28.615v37.86c35.399 11.449 71.296 20.38 109.824 27.264v-36.508zM687.644 558.933c-38.528-6.912-74.425-15.844-109.824-27.278v-37.845c35.499 12.089 71.31 21.404 109.824 28.601v36.523zM342.628 494.293c38.514-6.869 74.425-15.815 109.824-27.264v-37.86c-35.484 12.089-71.31 21.419-109.824 28.615v36.508zM342.628 522.411c38.514-7.196 74.34-16.512 109.824-28.601v37.845c-35.399 11.449-71.31 20.366-109.824 27.278v-36.523zM342.628 392.263c38.514-7.182 74.34-16.54 109.824-28.572v37.803c-35.399 11.506-71.31 20.423-109.824 27.307v-36.537z" />
<glyph unicode="&#xe92c;" glyph-name="options" d="M881.778 398.251v99.556l-88.42 31.46c-6.101 21.163-14.507 41.372-25.003 60.288l40.306 84.693-70.443 70.471-84.693-40.277c-18.972 10.425-39.125 18.844-60.302 24.96l-31.417 88.42h-99.627l-31.417-88.42c-21.205-6.116-41.344-14.535-60.302-24.96l-84.708 40.277-70.443-70.471 40.249-84.693c-10.411-18.916-18.859-39.125-24.917-60.288l-88.42-31.474v-99.556l88.42-31.502c6.059-21.148 14.507-41.301 24.917-60.217l-40.249-84.779 70.443-70.471 84.708 40.363c18.958-10.468 39.111-18.887 60.302-25.031l31.417-88.42h99.627l31.417 88.42c21.177 6.144 41.33 14.549 60.302 25.031l84.693-40.363 70.443 70.471-40.306 84.779c10.496 18.916 18.901 39.068 25.003 60.217l88.42 31.516zM512 312.391c-74.923 0-135.652 60.7-135.652 135.609 0 74.923 60.729 135.637 135.652 135.637s135.58-60.7 135.58-135.637c0-74.923-60.658-135.609-135.58-135.609z" />
<glyph unicode="&#xe92d;" glyph-name="password" d="M403.1 506.638h-89.756v112.484c0 109.54 89.116 198.656 198.656 198.656s198.656-89.116 198.656-198.656v-112.484h-89.756v112.484c0 60.046-48.853 108.9-108.9 108.9s-108.9-48.853-108.9-108.9v-112.484zM777.671 452.793v-374.571h-531.342v374.571h531.342zM560.469 295.424c0 26.766-21.703 48.469-48.469 48.469s-48.469-21.703-48.469-48.469c0-14.023 5.959-26.652 15.474-35.499 7.865-7.31 12.345-17.593 12.345-28.331v-41.188h41.287v41.173c0 10.752 4.48 21.020 12.345 28.331 9.529 8.86 15.488 21.49 15.488 35.513z" />
<glyph unicode="&#xe92e;" glyph-name="phone" d="M657.138 827.264h-290.276c-33.564 0-60.757-27.193-60.757-60.757v-637.013c0-33.55 27.193-60.757 60.757-60.757h290.261c33.564 0 60.757 27.193 60.757 60.757v637.013c0.014 33.564-27.193 60.757-60.743 60.757zM479.772 771.612h68.124c4.082 0 7.367-3.285 7.367-7.353s-3.3-7.367-7.367-7.367h-68.124c-4.068 0-7.367 3.3-7.367 7.367s3.3 7.353 7.367 7.353zM513.863 103.609c-16.299 0-29.468 13.184-29.468 29.454 0 16.256 13.17 29.454 29.468 29.454 16.256 0 29.454-13.184 29.454-29.454-0.014-16.256-13.198-29.454-29.454-29.454zM671.701 194.389h-319.403v507.207h319.403v-507.207z" />
<glyph unicode="&#xe92f;" glyph-name="pics" d="M315.634 502.4c-15.104 0-27.349 12.245-27.349 27.349h-93.696c0-15.104-12.245-27.349-27.349-27.349h-25.017v-290.958h479.502v290.958h-306.091zM288.284 416.27h-93.696v40.732h93.696v-40.732zM452.964 255.090c-55.509 0-100.679 45.156-100.679 100.665s45.17 98.347 100.679 98.347c55.509 0 100.679-42.837 100.679-98.347s-45.156-100.665-100.679-100.665zM507.093 355.755c0-29.838-24.277-54.116-54.116-54.116s-54.116 24.277-54.116 54.116c0 29.838 24.277 54.116 54.116 54.116s54.116-24.277 54.116-54.116zM881.778 524.971l-121.131-312.789-97.493 37.76v53.305l69.092-26.752 85.234 220.075-319.388 123.691-29.596-76.43h-53.305l54.5 140.729 412.089-159.588z" />
<glyph unicode="&#xe930;" glyph-name="place" d="M512 817.778c-112.54 0-203.776-91.236-203.776-203.776s89.188-243.328 203.776-439.552c114.588 196.224 203.776 327.012 203.776 439.552s-91.236 203.776-203.776 203.776zM512 545.877c-40.363 0-73.074 32.725-73.074 73.074s32.711 73.074 73.074 73.074c40.363 0 73.074-32.725 73.074-73.074 0-40.363-32.711-73.074-73.074-73.074zM735.047 185.358c0-19.186-9.657-55.324-74.297-81.707-83.072-33.892-214.357-33.92-297.5 0-64.64 26.368-74.297 62.507-74.297 81.707 0 48.313 53.291 76.715 99.755 90.596 9.003-15.275 18.304-30.933 27.89-47.061 0.27-0.469 0.555-0.939 0.825-1.394-156.843-38.841-29.554-94.791 94.578-94.791 123.989 0 251.25 55.979 94.564 94.791 0.27 0.469 0.555 0.939 0.825 1.394 9.586 16.142 18.887 31.801 27.89 47.061 46.507-13.895 99.769-42.283 99.769-90.596z" />
<glyph unicode="&#xe931;" glyph-name="prev" d="M745.529 176.725l-99.044-98.503-368.014 369.778 368.014 369.778 99.044-98.532-269.995-271.246z" />
<glyph unicode="&#xe932;" glyph-name="print" d="M785.778 659.826v157.952h-547.527v-157.952h-96.028v-364.402h96.028v-217.202h547.527v217.188h96v364.416h-96zM713.913 150.002h-403.854v231.595h403.854v-231.595zM713.913 659.826h-403.854v86.158h403.854v-86.158zM810.581 568.676c-11.989 0-21.732 9.714-21.732 21.717s9.756 21.732 21.732 21.732c11.989 0 21.717-9.728 21.717-21.732s-9.728-21.717-21.717-21.717zM584.405 225.095h-228.295v40.405h228.295v-40.405zM669.966 299.634h-313.856v40.42h313.856v-40.42z" />
<glyph unicode="&#xe933;" glyph-name="promo" d="M488.96 202.567c7.524-2.987 12.345-10.396 12.060-18.489-0.299-8.092-5.646-15.118-13.369-17.55l-76.629-24.149c-14.962-4.722-31.26 0.754-40.363 13.525l-81.095 113.991 112.996 35.641 50.83-74.766c8.548-12.558 20.651-22.272 34.773-27.89l0.796-0.313zM323.484 553.657l-102.599-32.313c-59.193-18.645-92.075-81.749-73.429-140.942s81.749-92.075 140.942-73.429l102.613 32.313-67.527 214.372zM360.604 565.447l67.57-214.571c72.946 12.757 171.705 14.692 303.872-19.2l-133.404 423.609c-91.236-106.226-171.676-158.834-238.037-189.838zM686.549 634.908c25.97-13.497 46.777-36.921 56.263-67.044 9.5-30.108 5.902-61.227-7.609-87.182l42.695-22.244c19.2 36.892 24.334 81.138 10.837 123.932s-43.051 76.060-79.943 95.246l-22.244-42.709zM725.49 709.66c45.099-23.452 81.195-64.1 97.692-116.409s10.212-106.396-13.241-151.495l43.762-22.812c29.284 56.32 37.134 123.861 16.54 189.17s-65.636 116.025-121.941 145.323l-22.812-43.776z" />
<glyph unicode="&#xe934;" glyph-name="save" d="M881.778 364.359c0-91.52-74.468-166.002-166.016-166.002h-405.717c-93.355 0-167.822 74.468-167.822 166.002 0 74.567 49.607 138.866 119.097 159.275 17.664 60.231 76.672 97.906 137.259 91.406v-71.253c-41.188 2.816-87.097-32.085-72.405-82.546-62.18 11.292-111.943-35.527-111.943-96.882 0-51.826 42.155-94.023 95.801-94.023h405.717c51.84 0 93.995 42.197 93.995 94.023 0 63.758-42.866 96.768-88.548 96.924-1.564 71.282-34.076 115.826-75.989 137.415v77.241c72.448-23.538 128.242-85.092 142.82-162.076 56.917-27.349 93.753-84.836 93.753-149.504zM598.443 708.779h-153.102v-237.867h-64.569l141.141-141.34 141.099 141.34h-64.569v237.867z" />
<glyph unicode="&#xe935;" glyph-name="search" d="M440.277 252.786c-156.501 0-283.833 127.317-283.833 283.819s127.332 283.861 283.833 283.861c156.544 0 283.876-127.346 283.876-283.861s-127.332-283.819-283.876-283.819zM440.277 723.541c-103.111 0-186.88-83.854-186.88-186.937s83.783-186.908 186.88-186.908c103.054 0 186.994 83.812 186.994 186.908s-83.94 186.937-186.994 186.937zM727.794 337.308c-25.358-36.494-57.5-67.897-94.564-92.516l169.23-169.259 93.54 93.525-168.206 168.249z" />
<glyph unicode="&#xe936;" glyph-name="send" d="M881.778 768.185l-191.431-608.754-243.954 205.198 240.398 225.109-322.247-197.589-222.322 47.943 739.556 328.092zM416.853 326.116v-198.3l105.458 108.174-105.458 90.126z" />
<glyph unicode="&#xe937;" glyph-name="service" d="M603.819 237.497c-20.224 20.21-48.242 30.649-76.715 28.672-51.428-3.584-104.021 14.293-143.332 53.589-51.612 51.641-66.233 126.222-43.89 190.876l117.39-117.39c45.781-2.674 116.594 68.124 113.934 113.92l-117.404 117.376c64.64 22.372 139.264 7.751 190.876-43.876 39.31-39.324 57.173-91.918 53.561-143.317-1.948-28.487 8.533-56.519 28.7-76.715l102.443-102.471c33.252 55.509 52.366 120.42 52.366 189.838 0 204.188-165.504 369.778-369.749 369.778-204.231 0-369.764-165.589-369.764-369.778s165.532-369.778 369.764-369.778c71.723 0 138.61 20.452 195.271 55.751l-103.452 103.524z" />
<glyph unicode="&#xe938;" glyph-name="signout" d="M790.386 346.681v55.893h-101.205c-22.955 0-34.759 7.993-44.729 21.76l-52.665 70.926-85.988-93.17 46.507-66.233c14.72-23.196 15.829-39.012 15.829-60.146v-148.636h-83.157v137.87c-0.626 46.578-71.168 86.286-101.774 53.106l-49.835-54.044c-12.416-13.468-29.924-21.148-48.242-21.148l-142.905 0.014v80.782l107.321 0.085c16.768 0.014 32.043 9.671 39.268 24.832l47.758 100.295c8.263 17.365 19.47 33.166 33.138 46.692l111.204 110.108-31.46 27.463c-9.429 8.22-22.044 11.733-34.361 9.586l-92.43-16.199-14.492 67.812 126.805 24.178c23.765 4.551 44.132-3.157 61.909-19.57l122.069-112.654c19.342-17.593 39.182-48.171 70.13-93.909 5.675-8.377 13.625-20.21 32.441-20.21h68.85v56.988l91.406-91.236-91.392-91.236zM681.685 610.916c43.221 8.263 71.566 50.020 63.303 93.255-8.263 43.221-50.034 71.566-93.255 63.303-43.236-8.263-71.566-50.020-63.303-93.255s50.020-71.58 93.255-63.303z" />
<glyph unicode="&#xe939;" glyph-name="stamp" d="M584.917 452.011v76.743c0 31.303 16.327 76.629 36.423 100.708 0 0 14.080 17.052 14.080 58.837 0 71.524-57.97 129.479-129.508 129.479-71.524 0-129.536-57.97-129.536-129.479 0-41.785 14.18-58.837 14.18-58.837 19.982-24.078 36.395-69.39 36.395-100.708v-76.743c0-26.439-9.628-48.811-22.571-55.111h-233.216v-216.533h681.671v216.533h-245.39c-12.914 6.315-22.528 28.672-22.528 55.111zM216.917 133.092h585.614v-54.869h-585.614v54.869z" />
<glyph unicode="&#xe93a;" glyph-name="stock" d="M507.847 817.636l-331.065-0.455v-330.852l408.007-408.249 331.307 331.307-408.249 408.249zM293.12 606.962c-26.98 26.98-26.98 70.727 0 97.692 26.98 26.98 70.713 26.98 97.692 0 26.965-26.965 26.965-70.713 0-97.692-26.98-26.98-70.699-26.98-97.692 0zM521.87 318.734l-136.818 136.832 31.73 31.73 136.832-136.846-31.744-31.716zM657.024 304.455l-211.527 211.527 31.73 31.758 211.513-211.556-31.716-31.73zM718.45 365.867l-211.556 211.541 31.744 31.716 211.541-211.527-31.73-31.73z" />
<glyph unicode="&#xe93b;" glyph-name="switch" d="M669.753 573.156c23.239 29.312 36.025 66.048 36.025 103.467v79.047h-387.556v-79.047c0-37.419 12.786-74.155 36.039-103.467l74.752-94.35c13.739-17.337 13.838-41.671 0.242-59.108l-75.847-97.28c-22.684-29.127-35.186-65.493-35.186-102.4v-79.687h387.556v79.687c0 36.907-12.487 73.273-35.186 102.4l-75.833 97.28c-13.611 17.436-13.511 41.771 0.242 59.108l74.752 94.35zM547.655 382.948l75.819-97.266c17.038-21.86 22.571-44.715 22.571-70.67h-16.697c-9.5 35.115-74.752 79.872-118.087 117.205-44.117-37.547-107.676-82.332-116.821-117.205h-16.484c0 25.771 5.433 48.697 22.571 70.67l75.833 97.266c30.606 39.282 30.393 93.952-0.54 132.964l-74.752 94.336c-17.237 21.746-23.111 44.956-23.111 70.727h268.089c0-25.614-5.788-48.868-23.111-70.727l-74.752-94.35c-30.919-38.997-31.147-93.668-0.526-132.949z" />
<glyph unicode="&#xe93c;" glyph-name="twitter" d="M851.726 658.716c-25.003-11.093-51.854-18.588-80.071-21.959 28.772 17.252 50.887 44.572 61.298 77.113-26.923-15.972-56.761-27.563-88.519-33.82-25.429 27.093-61.653 44.018-101.746 44.018-89.97 0-156.132-83.968-135.794-171.15-115.826 5.803-218.553 61.312-287.303 145.636-36.508-62.635-18.944-144.612 43.136-186.112-22.855 0.725-44.345 6.997-63.132 17.451-1.508-64.583 44.772-124.971 111.801-138.439-19.612-5.333-41.102-6.556-62.948-2.389 17.735-55.381 69.22-95.687 130.219-96.811-58.596-45.924-132.423-66.432-206.379-57.728 61.682-39.538 134.955-62.62 213.675-62.62 258.802 0 405.020 218.596 396.203 414.649 27.236 19.655 50.859 44.217 69.561 72.164z" />
<glyph unicode="&#xe93d;" glyph-name="update" d="M322.702 762.24c-107.122-66.432-168.533-178.503-174.478-295.538h-96.896l155.406-156.188 156.231 156.188h-96.057c5.717 77.511 47.132 150.756 118.215 194.859 117.959 73.131 272.853 36.836 345.998-81.138 73.159-117.931 36.836-272.811-81.081-345.941-108.018-66.958-246.869-42.155-325.703 52.836l-83.285-84.836c117.177-132.281 316.060-165.035 471.339-68.693 173.54 107.62 227.029 335.545 119.381 509.113-107.577 173.483-335.531 226.916-509.070 119.339z" />
<glyph unicode="&#xe93e;" glyph-name="valid" d="M435.527 384.91l-186.638 186.652-106.667-106.667 293.305-293.348 446.251 446.236-106.724 106.667z" />
<glyph unicode="&#xe93f;" glyph-name="view" d="M512.882 232.348c-149.49 0-285.355 102.827-370.66 227.883 86.087 120.661 221.938 203.435 370.66 203.435 149.049 0 285.355-81.337 368.896-202.667-79.218-132.025-214.812-228.651-368.896-228.651zM220.487 459.179c71.41-88.206 176.868-163.996 292.395-163.996 157.383 0 259.257 117.931 292.608 163.314-70.969 83.499-175.403 142.336-292.608 142.336-152.235 0-256-100.21-292.395-141.653zM516.153 572.516c-68.764 0-124.516-55.751-124.516-124.516s55.751-124.516 124.516-124.516 124.516 55.751 124.516 124.516-55.751 124.516-124.516 124.516zM516.025 448.043c-17.579-17.579-46.066-17.579-63.644 0s-17.579 46.080 0 63.644c17.579 17.579 46.066 17.579 63.644 0s17.579-46.066 0-63.644z" />
<glyph unicode="&#xe940;" glyph-name="warning" d="M874.852 174.35l-333.326 577.337c-16.242 28.117-42.809 28.117-59.051 0l-333.326-577.337c-16.242-28.117-2.958-51.129 29.525-51.129h666.652c32.469 0 45.753 23.012 29.525 51.129zM474.482 549.717h75.051v-227.598h-75.051v227.598zM512 204.715c-22.372 0-40.505 18.133-40.505 40.505s18.133 40.505 40.505 40.505c22.372 0 40.505-18.133 40.505-40.505s-18.133-40.505-40.505-40.505z" />
<glyph unicode="&#xe941;" glyph-name="warranty" d="M587.975 317.013h45.582v-273.508l-120.277 91.179-122.837-91.179v273.508h44.473c25.216-17.678 41.956-30.407 77.084-30.407 29.611 0 57.145 12.587 75.975 30.407zM769.621 512.612c1.892-5.461 2.745-11.022 2.745-16.555 0-16.697-8.249-32.868-22.869-43.008-46.72-32.356-40.533-24.22-58.14-76.885-7.353-21.959-28.615-36.836-52.565-36.836-0.057 0-0.071 0-0.156 0-57.628 0.213-47.602 3.3-94.023-29.34-9.742-6.841-21.148-10.254-32.612-10.254-11.435 0-22.884 3.399-32.583 10.254-46.478 32.668-36.48 29.554-94.052 29.34-0.028 0-0.114 0-0.142 0-23.964 0-45.212 14.876-52.565 36.836-17.564 52.75-11.548 44.558-58.126 76.885-14.649 10.155-22.912 26.325-22.912 43.022 0 5.532 0.91 11.079 2.773 16.54 17.977 52.466 18.020 42.354 0 95.047-1.863 5.447-2.773 11.022-2.773 16.526 0 16.725 8.263 32.853 22.912 43.022 46.564 32.299 40.519 24.121 58.126 76.871 7.353 21.988 28.601 36.85 52.565 36.85 0.028 0 0.071 0 0.142 0 57.458-0.199 47.275-3.527 94.052 29.369 9.7 6.798 21.134 10.212 32.583 10.212 11.463 0 22.869-3.399 32.612-10.212 46.436-32.668 36.437-29.568 94.023-29.369 0.028 0 0.114 0 0.156 0 23.964 0 45.227-14.862 52.565-36.85 17.607-52.651 11.42-44.516 58.14-76.871 14.62-10.155 22.869-26.283 22.869-42.994 0-5.504-0.853-11.108-2.745-16.555-17.92-52.466-18.005-42.368 0-95.047zM642.204 616.661l-40.32 40.306-122.411-125.483-57.358 54.357-40.306-40.292 97.65-94.677 162.745 165.788z" />
<glyph unicode="&#xe942;" glyph-name="windows" d="M157.796 468.281v235.904l286.265 40.149v-276.068l-286.265 0.014zM484.622 468.281h381.582v335.275l-381.582-53.518v-281.756zM444.060 427.719h-286.265v-235.918l286.265-40.149v276.068zM484.622 427.719v-281.756l381.582-53.518v335.275h-381.582z" />
<glyph unicode="&#xe943;" glyph-name="workshop" d="M586.453 490.439l42.155 63.289c10.78 16.171 32.683 20.565 48.839 9.756 16.185-10.795 20.537-32.64 9.756-48.811l-42.155-63.303c-10.823-16.171-32.697-20.565-48.882-9.785-16.156 10.78-20.523 32.683-9.714 48.853zM528.427 511.488c16.228-10.809 38.116-6.428 48.924 9.785l42.624 63.915c10.837 16.228 6.457 38.13-9.785 48.939-16.228 10.78-38.101 6.414-48.924-9.785l-42.61-63.943c-10.795-16.185-6.428-38.087 9.771-48.91zM744.377 389.831l-37.305-55.979c-9.913-14.891-5.916-35.015 8.974-44.971 14.891-9.899 35.015-5.845 44.956 9.045l37.319 55.922c9.927 14.933 5.902 35.058-9.003 44.971-14.891 9.913-35.015 5.902-44.942-8.988zM649.742 415.687c-10.738-16.114-6.386-37.945 9.742-48.626 16.128-10.78 37.931-6.386 48.683 9.685l40.434 60.658c10.752 16.142 6.414 37.959-9.756 48.697-16.1 10.766-37.916 6.4-48.683-9.728l-40.42-60.686zM844.217 131.769c-28.686-28.658-75.179-28.658-103.879 0l-184.377 188.089c33.579 37.092 17.266 101.063-36.38 110.578l-94.72 16.853-32.612 32.612c-18.489 18.475-43.947 28.217-70.073 26.837-42.539-2.276-85.845 12.843-118.357 45.355-43.548 43.548-55.893 106.496-37.020 161.038l99.029-99.029c38.628-2.276 98.361 57.458 96.085 96.1l-99.029 99.029c54.556 18.859 117.504 6.542 161.052-37.035 32.512-32.512 47.616-75.819 45.326-118.357-1.337-26.098 8.391-51.584 26.852-70.073l0.868-0.839c-38.315-64.185 13.326-108.16 55.637-106.524-7.595-36.395 31.303-74.311 64.768-74.311-8.292-32.014 16.498-65.465 55.083-73.045-15.502-56.135 69.604-116.053 118.884-40.519l52.85-52.864c28.729-28.7 28.729-75.179 0.014-103.893zM818.987 188.217c0 16.711-13.568 30.265-30.279 30.265-16.74 0-30.308-13.554-30.308-30.265 0-16.725 13.568-30.308 30.308-30.308 16.711 0 30.279 13.568 30.279 30.308zM554.809 276.636c-20.537 21.205-52.437 22.756-110.407 26.61-8.832 0.597-14.236-5.063-14.99-13.625-0.171-1.934-14.094-129.692-14.094-129.692s86.059-58.169 121.387-81.721c32.796 59.193 83.2 62.734 120.86 92.501l-102.756 105.927zM504.832 328.789c44.914 0.028 51.669 63.588 9.33 71.125-159.317 28.302-150.955 27.392-156.217 27.392-19.57 0-36.494-13.952-40.306-33.209l-13.767-121.6c-1.863-19.442 4.437-36.224 19.484-47.189 15.004-10.923 62.45-44.672 62.45-44.672s10.126 87.381 12.956 112.484c2.844 25.145 16.967 42.468 43.833 41.116 2.901-0.114 57.33-5.447 62.236-5.447z" />
</font>
</defs>
</svg>
